<mxfile host="Electron" modified="2023-09-29T15:15:59.724Z" agent="Mozilla/5.0 (Macintosh; Intel Mac OS X 10_15_7) AppleWebKit/537.36 (KHTML, like Gecko) draw.io/21.1.2 Chrome/106.0.5249.199 Electron/21.4.3 Safari/537.36" etag="qZ5iD9DaLqgNRdO92PAI" version="21.1.2" type="device">
  <diagram name="Page-1" id="2YBvvXClWsGukQMizWep">
    <mxGraphModel dx="2092" dy="819" grid="1" gridSize="10" guides="1" tooltips="1" connect="1" arrows="1" fold="1" page="1" pageScale="1" pageWidth="850" pageHeight="1100" math="0" shadow="0">
      <root>
        <mxCell id="0" />
        <mxCell id="1" parent="0" />
        <mxCell id="ZHOQJQTcZNs33Ych34GT-1" value="" style="whiteSpace=wrap;html=1;aspect=fixed;" vertex="1" parent="1">
          <mxGeometry x="450" y="70" width="310" height="310" as="geometry" />
        </mxCell>
        <mxCell id="ZHOQJQTcZNs33Ych34GT-2" value="LDAP" style="shape=cylinder3;whiteSpace=wrap;html=1;boundedLbl=1;backgroundOutline=1;size=15;" vertex="1" parent="1">
          <mxGeometry x="575" y="240" width="60" height="80" as="geometry" />
        </mxCell>
        <mxCell id="ZHOQJQTcZNs33Ych34GT-3" value="Docker-compose" style="text;html=1;strokeColor=none;fillColor=none;align=center;verticalAlign=middle;whiteSpace=wrap;rounded=0;" vertex="1" parent="1">
          <mxGeometry x="552.5" y="70" width="105" height="30" as="geometry" />
        </mxCell>
        <mxCell id="ZHOQJQTcZNs33Ych34GT-4" value="" style="whiteSpace=wrap;html=1;aspect=fixed;" vertex="1" parent="1">
          <mxGeometry x="90" y="70" width="310" height="310" as="geometry" />
        </mxCell>
        <mxCell id="ZHOQJQTcZNs33Ych34GT-5" value="backend" style="text;html=1;strokeColor=none;fillColor=none;align=center;verticalAlign=middle;whiteSpace=wrap;rounded=0;" vertex="1" parent="1">
          <mxGeometry x="192.5" y="70" width="105" height="30" as="geometry" />
        </mxCell>
        <mxCell id="ZHOQJQTcZNs33Ych34GT-7" value="Apache Tomcat" style="rounded=1;whiteSpace=wrap;html=1;" vertex="1" parent="1">
          <mxGeometry x="185" y="130" width="120" height="60" as="geometry" />
        </mxCell>
        <mxCell id="ZHOQJQTcZNs33Ych34GT-9" style="edgeStyle=orthogonalEdgeStyle;rounded=0;orthogonalLoop=1;jettySize=auto;html=1;exitX=0.5;exitY=0;exitDx=0;exitDy=0;entryX=0.5;entryY=1;entryDx=0;entryDy=0;" edge="1" parent="1" source="ZHOQJQTcZNs33Ych34GT-8" target="ZHOQJQTcZNs33Ych34GT-7">
          <mxGeometry relative="1" as="geometry" />
        </mxCell>
        <mxCell id="ZHOQJQTcZNs33Ych34GT-10" style="edgeStyle=orthogonalEdgeStyle;rounded=0;orthogonalLoop=1;jettySize=auto;html=1;exitX=1;exitY=0.5;exitDx=0;exitDy=0;entryX=0;entryY=0.5;entryDx=0;entryDy=0;entryPerimeter=0;" edge="1" parent="1" source="ZHOQJQTcZNs33Ych34GT-8" target="ZHOQJQTcZNs33Ych34GT-2">
          <mxGeometry relative="1" as="geometry" />
        </mxCell>
        <mxCell id="ZHOQJQTcZNs33Ych34GT-8" value="Spring Boot App" style="rounded=1;whiteSpace=wrap;html=1;" vertex="1" parent="1">
          <mxGeometry x="185" y="250" width="120" height="60" as="geometry" />
        </mxCell>
        <mxCell id="ZHOQJQTcZNs33Ych34GT-13" style="edgeStyle=orthogonalEdgeStyle;rounded=0;orthogonalLoop=1;jettySize=auto;html=1;exitX=1;exitY=0.5;exitDx=0;exitDy=0;entryX=0;entryY=0.5;entryDx=0;entryDy=0;" edge="1" parent="1" source="ZHOQJQTcZNs33Ych34GT-11" target="ZHOQJQTcZNs33Ych34GT-8">
          <mxGeometry relative="1" as="geometry">
            <Array as="points">
              <mxPoint x="140" y="160" />
              <mxPoint x="140" y="280" />
            </Array>
          </mxGeometry>
        </mxCell>
        <mxCell id="ZHOQJQTcZNs33Ych34GT-11" value="Swagger" style="rounded=1;whiteSpace=wrap;html=1;" vertex="1" parent="1">
          <mxGeometry x="-121" y="130" width="120" height="60" as="geometry" />
        </mxCell>
        <mxCell id="ZHOQJQTcZNs33Ych34GT-14" style="edgeStyle=orthogonalEdgeStyle;rounded=0;orthogonalLoop=1;jettySize=auto;html=1;exitX=0.5;exitY=1;exitDx=0;exitDy=0;" edge="1" parent="1" source="ZHOQJQTcZNs33Ych34GT-12" target="ZHOQJQTcZNs33Ych34GT-2">
          <mxGeometry relative="1" as="geometry" />
        </mxCell>
        <mxCell id="ZHOQJQTcZNs33Ych34GT-12" value="phpldapadmin" style="rounded=1;whiteSpace=wrap;html=1;" vertex="1" parent="1">
          <mxGeometry x="545" y="130" width="120" height="60" as="geometry" />
        </mxCell>
      </root>
    </mxGraphModel>
  </diagram>
</mxfile>
